<svg width="24" height="24" viewBox="0 0 24 24" fill="none" xmlns="http://www.w3.org/2000/svg">
<rect width="24" height="24" fill="black"/>
<path d="M7.352 18V17.216H7.656C7.848 17.216 8.03467 17.1947 8.216 17.152C8.39733 17.0987 8.54667 16.9973 8.664 16.848C8.792 16.688 8.856 16.4533 8.856 16.144V10.384H7.416V9.424H8.856V8.752C8.856 7.78133 9.112 7.02933 9.624 6.496C10.1467 5.96267 10.9253 5.696 11.96 5.696C12.6 5.696 13.096 5.744 13.448 5.84C13.8107 5.936 14.0667 6.06933 14.216 6.24C14.376 6.41067 14.456 6.608 14.456 6.832C14.456 7.056 14.392 7.24267 14.264 7.392C14.136 7.53067 13.9387 7.63733 13.672 7.712C13.416 7.78667 13.1067 7.824 12.744 7.824C12.744 7.64267 12.712 7.45067 12.648 7.248C12.5947 7.04533 12.504 6.87467 12.376 6.736C12.248 6.59733 12.072 6.528 11.848 6.528C11.5067 6.528 11.2667 6.688 11.128 7.008C11 7.328 10.936 7.82933 10.936 8.512V9.424H13.16V10.384H10.936V16.144C10.936 16.4533 10.9947 16.688 11.112 16.848C11.2293 16.9973 11.384 17.0987 11.576 17.152C11.768 17.1947 11.9547 17.216 12.136 17.216H12.84V18H7.352ZM15.4893 18.128C15.1693 18.128 14.8919 18.0373 14.6573 17.856C14.4226 17.6747 14.3053 17.36 14.3053 16.912C14.3053 16.4533 14.4226 16.1387 14.6573 15.968C14.8919 15.7973 15.1746 15.712 15.5053 15.712C15.8253 15.712 16.1026 15.7973 16.3373 15.968C16.5719 16.1387 16.6893 16.4533 16.6893 16.912C16.6893 17.3707 16.5719 17.6907 16.3373 17.872C16.1026 18.0427 15.8199 18.128 15.4893 18.128Z" fill="white"/>
</svg>
