<svg width="732" height="1014" viewBox="0 0 732 1014" fill="none" xmlns="http://www.w3.org/2000/svg">
<path opacity="0.5" d="M528.401 360.51C445.701 312.21 377.301 357.41 365.201 461.51C363.101 479.61 376.801 503.409 393.401 513.109L663.301 670.71C679.901 680.41 693.601 672.609 691.601 652.109C679.501 533.809 611.101 408.71 528.401 360.51Z" fill="url(#paint0_linear_6591_46)"/>
<path opacity="0.5" d="M620.6 225.21C620.6 297.11 579 331.11 527.7 301.11C476.5 271.21 434.9 188.71 434.9 116.81C434.9 44.9096 476.5 10.9096 527.8 40.9096C579.1 70.8096 620.6 153.41 620.6 225.21Z" fill="url(#paint1_linear_6591_46)"/>
<path opacity="0.07" d="M568.401 330.51C485.701 282.21 417.301 327.41 405.201 431.51C403.101 449.61 416.801 473.41 433.401 483.11L703.301 640.71C719.901 650.41 733.601 642.609 731.601 622.109C719.501 503.809 651.101 378.71 568.401 330.51Z" fill="url(#paint2_linear_6591_46)"/>
<path opacity="0.07" d="M660.6 195.21C660.6 267.11 619 301.11 567.7 271.11C516.5 241.21 474.9 158.71 474.9 86.8096C474.9 14.9096 516.5 -19.0904 567.8 10.9096C619.1 40.8096 660.6 123.41 660.6 195.21Z" fill="url(#paint3_linear_6591_46)"/>
<path opacity="0.2" d="M186.2 397.209L0 289.709V386.709L186.3 494.209L186.2 397.209Z" fill="url(#paint4_linear_6591_46)"/>
<path d="M37.8006 344.109C37.8006 352.109 33.1006 355.809 27.2006 352.509C21.4006 349.109 16.6006 339.909 16.6006 331.909C16.6006 323.909 21.3006 320.209 27.2006 323.509C33.1006 326.909 37.8006 336.109 37.8006 344.109Z" fill="#FDB022"/>
<path opacity="0.15" d="M47.4004 341.109L108.3 376.21V389.809L47.4004 354.71V341.109Z" fill="white"/>
<path opacity="0.15" d="M47.7002 368.51L167 437.41V451.01L47.7002 382.11V368.51Z" fill="white"/>
<path opacity="0.05" d="M480.2 495.01L667.3 603.01V1005.91L480.2 898.01V495.01Z" fill="url(#paint5_linear_6591_46)"/>
<path opacity="0.3" d="M636.1 630.01L448.9 522.01V924.91L636 1032.91L636.1 630.01ZM509.9 583.01L572.4 619.01V635.01L509.9 599.51V583.01Z" fill="url(#paint6_linear_6591_46)"/>
<path opacity="0.15" d="M467 777.31L617.3 864.01V877.61L467 790.91V777.31Z" fill="white"/>
<path opacity="0.15" d="M477.601 809.91L606.901 884.51V898.11L477.601 823.51V809.91Z" fill="white"/>
<path d="M584.3 743.41C584.3 711.51 565.6 674.81 542.6 661.51C519.6 648.21 500.9 663.31 500.9 695.21C500.9 727.11 519.6 763.809 542.6 777.109C565.6 790.409 584.3 775.31 584.3 743.41Z" fill="#FDB022"/>
<path opacity="0.05" d="M247.2 170.709L434.3 278.709V681.609L247.2 573.609V170.709Z" fill="url(#paint7_linear_6591_46)"/>
<path opacity="0.3" d="M403.1 306.01L215.9 198.01V600.91L403 708.91L403.1 306.01ZM276.9 259.01L339.4 295.01V311.01L276.9 275.51V259.01Z" fill="url(#paint8_linear_6591_46)"/>
<path opacity="0.15" d="M234 452.91L384.3 539.61V553.21L234 466.51V452.91Z" fill="white"/>
<path opacity="0.15" d="M244.5 485.609L373.7 560.21V573.809L244.4 499.21L244.5 485.609Z" fill="white"/>
<path d="M351.3 419.11C351.3 387.21 332.6 350.51 309.6 337.21C286.6 323.91 267.9 339.01 267.9 370.91C267.9 402.81 286.6 439.51 309.6 452.81C332.6 466.11 351.3 451.01 351.3 419.11Z" fill="#FDB022"/>
<path opacity="0.3" d="M351.3 643.81L53.7002 472.01L53.8002 627.109L325.1 783.71L351.4 822.609L351.3 643.81Z" fill="url(#paint9_linear_6591_46)"/>
<path d="M22 532.51V490.41L134.3 555.21V597.31L22 532.51Z" fill="#FDB022"/>
<path opacity="0.15" d="M274.801 637.41L209.601 599.81V613.41L274.801 651.01V637.41Z" fill="white"/>
<path opacity="0.15" d="M274.801 664.709L149.101 592.209V605.809L274.801 678.309V664.709Z" fill="white"/>
<path opacity="0.15" d="M274.801 691.91L122.601 604.01V617.609L274.901 705.51L274.801 691.91Z" fill="white"/>
<path d="M290.9 660.91C290.9 673.71 298.5 688.41 307.8 693.81C317.1 699.21 324.7 693.21 324.7 680.41C324.7 667.61 317.1 652.91 307.8 647.51C298.4 642.11 290.8 648.11 290.9 660.91Z" fill="#FDB022"/>
<path opacity="0.2" d="M118 178.409C124 181.809 128.8 190.209 128.8 197.109V227.609L149 239.209C155 242.609 159.8 251.009 159.8 257.909C159.8 264.809 155 267.61 149 264.21L128.8 252.609V283.109C128.8 290.009 124 292.809 118 289.409C112 286.009 107.2 277.61 107.2 270.71V240.209L87.0002 228.609C81.0002 225.209 76.2002 216.809 76.2002 209.909C76.2002 203.009 81.0002 200.209 87.0002 203.609L107.2 215.209V184.709C107.2 177.809 112 175.009 118 178.409Z" fill="url(#paint10_linear_6591_46)"/>
<defs>
<linearGradient id="paint0_linear_6591_46" x1="869.636" y1="281.727" x2="533.713" y2="526.773" gradientUnits="userSpaceOnUse">
<stop stop-color="white"/>
<stop offset="1" stop-color="white" stop-opacity="0"/>
</linearGradient>
<linearGradient id="paint1_linear_6591_46" x1="698.445" y1="46.5084" x2="362.522" y2="291.555" gradientUnits="userSpaceOnUse">
<stop stop-color="white"/>
<stop offset="1" stop-color="white" stop-opacity="0"/>
</linearGradient>
<linearGradient id="paint2_linear_6591_46" x1="909.637" y1="251.727" x2="573.714" y2="496.773" gradientUnits="userSpaceOnUse">
<stop stop-color="white"/>
<stop offset="1" stop-color="white" stop-opacity="0"/>
</linearGradient>
<linearGradient id="paint3_linear_6591_46" x1="738.445" y1="16.5085" x2="402.522" y2="261.555" gradientUnits="userSpaceOnUse">
<stop stop-color="white"/>
<stop offset="1" stop-color="white" stop-opacity="0"/>
</linearGradient>
<linearGradient id="paint4_linear_6591_46" x1="114.115" y1="355.602" x2="72.1039" y2="428.387" gradientUnits="userSpaceOnUse">
<stop stop-color="white"/>
<stop offset="1" stop-color="white" stop-opacity="0"/>
</linearGradient>
<linearGradient id="paint5_linear_6591_46" x1="682.423" y1="562.298" x2="450.704" y2="963.752" gradientUnits="userSpaceOnUse">
<stop stop-color="white"/>
<stop offset="1" stop-color="white" stop-opacity="0"/>
</linearGradient>
<linearGradient id="paint6_linear_6591_46" x1="651.127" y1="589.248" x2="419.408" y2="990.702" gradientUnits="userSpaceOnUse">
<stop stop-color="white"/>
<stop offset="1" stop-color="white" stop-opacity="0"/>
</linearGradient>
<linearGradient id="paint7_linear_6591_46" x1="449.415" y1="237.98" x2="217.696" y2="639.434" gradientUnits="userSpaceOnUse">
<stop stop-color="white"/>
<stop offset="1" stop-color="white" stop-opacity="0"/>
</linearGradient>
<linearGradient id="paint8_linear_6591_46" x1="418.127" y1="265.248" x2="186.408" y2="666.702" gradientUnits="userSpaceOnUse">
<stop stop-color="white"/>
<stop offset="1" stop-color="white" stop-opacity="0"/>
</linearGradient>
<linearGradient id="paint9_linear_6591_46" x1="286.402" y1="581.694" x2="132.751" y2="701.998" gradientUnits="userSpaceOnUse">
<stop stop-color="white"/>
<stop offset="1" stop-color="white" stop-opacity="0"/>
</linearGradient>
<linearGradient id="paint10_linear_6591_46" x1="138.878" y1="217.399" x2="86.5207" y2="258.719" gradientUnits="userSpaceOnUse">
<stop stop-color="white"/>
<stop offset="1" stop-color="white" stop-opacity="0"/>
</linearGradient>
</defs>
</svg>
