<svg width="142" height="24" viewBox="0 0 142 24" fill="none" xmlns="http://www.w3.org/2000/svg">
<path d="M12.5532 3.31042C15.9566 2.58799 19.6572 3.50733 22.3039 6.06875C26.4327 10.0645 26.4327 16.5428 22.3039 20.5383C21.2833 21.526 20.1058 22.2691 18.8492 22.7686C20.755 22.3639 22.5678 21.4446 24.05 20.0102C28.1788 16.0144 28.1788 9.53614 24.05 5.54069C20.9421 2.53264 16.3803 1.78954 12.5532 3.31042Z" fill="#EE8322"/>
<path d="M4.19297 16.3005C3.33144 12.4991 4.428 8.36556 7.48264 5.40937C12.2479 0.797738 19.974 0.797738 24.7393 5.40937C25.9173 6.54947 26.8035 7.86454 27.3991 9.26803C26.9166 7.13925 25.8204 5.11448 24.1095 3.45872C19.3442 -1.15291 11.6184 -1.15291 6.85284 3.45872C3.26537 6.93057 2.37919 12.026 4.19297 16.3005Z" fill="#009444"/>
<path d="M17.4058 23.1157C13.4778 23.9494 9.20667 22.8882 6.15202 19.932C1.38681 15.3204 1.38681 7.84356 6.15202 3.23161C7.3301 2.09151 8.68896 1.23389 10.1392 0.657471C7.93951 1.12446 5.84731 2.18535 4.13641 3.84111C-0.628804 8.45274 -0.628804 15.9299 4.13641 20.5415C7.72388 24.0134 12.9891 24.871 17.4058 23.1157Z" fill="#ED1C24"/>
<path fill-rule="evenodd" clip-rule="evenodd" d="M131.02 5.01286C131.02 3.44612 132.312 2.18945 133.932 2.18945C135.568 2.18945 136.826 3.44612 136.826 5.01286C136.826 6.61389 135.568 7.87055 133.932 7.87055C132.312 7.87055 131.02 6.61389 131.02 5.01286ZM131.744 5.01468C131.744 6.27134 132.674 7.26935 133.949 7.26935C135.189 7.26935 136.103 6.27056 136.103 5.03182C136.103 3.77593 135.189 2.76 133.932 2.76C132.674 2.76 131.744 3.77515 131.744 5.01468Z" fill="#D9D9D9"/>
<path fill-rule="evenodd" clip-rule="evenodd" d="M134.587 5.06446V5.09874C134.863 5.20236 135.017 5.40883 135.103 5.78824C135.189 6.21831 135.241 6.39049 135.31 6.49411H134.603C134.533 6.40916 134.485 6.22055 134.423 5.97506C134.409 5.92108 134.395 5.86436 134.379 5.80538C134.328 5.49608 134.155 5.35818 133.794 5.35818H133.483V6.49411H132.829V3.67066C133.087 3.61924 133.45 3.58496 133.915 3.58496C134.449 3.58496 134.69 3.67066 134.896 3.79142C135.051 3.9114 135.172 4.135 135.172 4.4108C135.172 4.7201 134.931 4.96162 134.587 5.06446ZM133.501 4.88793H133.812C134.173 4.88793 134.466 4.76758 134.466 4.47562C134.466 4.21861 134.276 4.047 133.863 4.047C133.691 4.047 133.57 4.06409 133.501 4.08117V4.88793Z" fill="#D9D9D9"/>
<path d="M73.3297 23.6801V3.93026C73.3297 3.28907 73.5543 2.74371 74.0034 2.29496C74.4526 1.8462 74.9984 1.62183 75.6402 1.62183H89.3743V5.40507H77.822V10.1497H86.4221V11.6245C86.4221 12.2657 86.1975 12.8111 85.7484 13.2598C85.2992 13.7086 84.7534 13.9329 84.1116 13.9329H77.822V23.6793H73.3297V23.6801Z" fill="#D9D9D9"/>
<path d="M91.144 1.62183H93.4545C94.0534 1.62183 94.5665 1.82517 94.9946 2.23107C95.4219 2.63775 95.6363 3.14026 95.6363 3.73782V23.6793H91.144V1.62183H91.144Z" fill="#D9D9D9"/>
<path fill-rule="evenodd" clip-rule="evenodd" d="M112.584 18.4214H109.375C108.861 18.4214 108.466 18.5289 108.189 18.7416C107.911 18.9558 107.75 19.1257 107.708 19.2542L107.355 19.6071C107.247 19.7147 107.13 19.7894 107.002 19.8315C106.488 20.1315 105.868 20.2803 105.14 20.2803C104.028 20.2803 103.193 19.939 102.637 19.2542C102.038 18.613 101.716 17.6306 101.674 16.3046H112.776C112.818 16.2197 112.84 16.0701 112.84 15.8558V15.5995V15.1508C112.84 12.3297 112.155 10.1288 110.786 8.54647C109.374 7.00777 107.384 6.23804 104.817 6.23804C102.378 6.23804 100.474 7.02959 99.1057 8.61035C97.7793 10.1498 97.1165 12.2876 97.1165 15.023C97.1165 17.8877 97.8011 20.0886 99.1704 21.6273C100.54 23.2096 102.444 23.9996 104.882 23.9996C106.893 23.9996 108.562 23.5088 109.888 22.5248C111.215 21.5852 112.113 20.2164 112.584 18.4214ZM108.22 13.4204H101.674C101.716 12.3102 102.037 11.4548 102.637 10.8556C103.236 10.2573 104.007 9.95737 104.948 9.95737C105.975 9.95737 106.766 10.2573 107.322 10.8556C107.835 11.4119 108.135 12.2666 108.22 13.4204Z" fill="#D9D9D9"/>
<path d="M128.945 23.6793H123.811L120.795 18.2935L117.65 23.6793H112.452L118.035 14.8951L112.773 6.62361H117.714L120.666 11.7539L123.939 6.23952C124.324 5.46978 124.966 5.08569 125.864 5.08569H129.715L123.297 14.9606L128.945 23.6793Z" fill="#D9D9D9"/>
<path d="M69.0789 19.0572C67.9109 17.2159 66.9823 15.9349 66.2939 15.2136C65.6055 14.4923 64.7324 13.8299 63.6745 13.2271C65.8007 12.9257 67.3984 12.1965 68.4676 11.0388C69.536 9.88114 70.0709 8.41419 70.0709 6.638C70.0709 5.23855 69.7183 3.9953 69.013 2.90745C68.3078 1.82039 67.3687 1.06376 66.1951 0.638354C65.0216 0.212947 63.1403 0.000244141 60.5505 0.000244141H55.375V4.0055H58.9641C60.9473 4.0055 62.1378 4.03219 62.5338 4.08635C63.3274 4.21585 63.9411 4.5251 64.3765 5.01486C64.8119 5.50463 65.0296 6.14823 65.0296 6.94489C65.0296 7.65521 64.8641 8.2478 64.534 8.72108C64.2038 9.19515 63.746 9.52873 63.162 9.72259C62.578 9.91646 61.1128 10.013 58.7656 10.013H58.6958H55.3758H40.2132V0.00102902H35.3992V23.6762H40.2132V13.8071H56.8057C57.5888 13.8369 58.1921 13.9194 58.5994 14.0591C59.1175 14.2365 59.6075 14.5653 60.0702 15.0441C60.5329 15.5229 61.3924 16.6829 62.6487 18.5243L66.1855 23.6762H72.0366L69.0789 19.0572Z" fill="#009444"/>
<rect x="49.9448" y="14.3579" width="4.82527" height="9.31816" fill="#009444"/>
<rect x="49.9448" y="0.0012207" width="4.82527" height="9.46175" fill="#009444"/>
</svg>
