<svg width="114" height="24" viewBox="0 0 114 24" fill="none" xmlns="http://www.w3.org/2000/svg">
<path d="M11.9907 3.31042C15.3941 2.58799 19.0947 3.50733 21.7414 6.06875C25.8702 10.0645 25.8702 16.5428 21.7414 20.5383C20.7208 21.526 19.5433 22.2691 18.2867 22.7686C20.1925 22.3639 22.0053 21.4446 23.4875 20.0102C27.6163 16.0144 27.6163 9.53614 23.4875 5.54069C20.3796 2.53264 15.8178 1.78954 11.9907 3.31042Z" fill="#EE8322"/>
<path d="M3.63047 16.3005C2.76894 12.4991 3.8655 8.36556 6.92014 5.40937C11.6854 0.797738 19.4115 0.797738 24.1768 5.40937C25.3548 6.54947 26.241 7.86454 26.8366 9.26803C26.3541 7.13925 25.2579 5.11448 23.547 3.45872C18.7817 -1.15291 11.0559 -1.15291 6.29034 3.45872C2.70287 6.93057 1.81669 12.026 3.63047 16.3005Z" fill="#009444"/>
<path d="M16.8433 23.1157C12.9153 23.9494 8.64417 22.8882 5.58952 19.932C0.824306 15.3204 0.824306 7.84356 5.58952 3.23161C6.7676 2.09151 8.12646 1.23389 9.5767 0.657471C7.37701 1.12446 5.28481 2.18535 3.57391 3.84111C-1.1913 8.45274 -1.1913 15.9299 3.57391 20.5415C7.16138 24.0134 12.4266 24.871 16.8433 23.1157Z" fill="#ED1C24"/>
<path fill-rule="evenodd" clip-rule="evenodd" d="M106.554 6.7597C106.554 5.58461 107.523 4.64209 108.738 4.64209C109.965 4.64209 110.909 5.58461 110.909 6.7597C110.909 7.96049 109.965 8.90302 108.738 8.90302C107.523 8.90302 106.554 7.96049 106.554 6.7597ZM107.097 6.76087C107.097 7.70339 107.794 8.45192 108.751 8.45192C109.681 8.45192 110.366 7.70281 110.366 6.77373C110.366 5.83179 109.681 5.06982 108.738 5.06982C107.794 5.06982 107.097 5.8312 107.097 6.76087Z" fill="#AEAEB2"/>
<path fill-rule="evenodd" clip-rule="evenodd" d="M109.229 6.79813V6.82384C109.436 6.90156 109.552 7.05641 109.616 7.34098C109.681 7.66353 109.72 7.79267 109.771 7.87039H109.241C109.189 7.80668 109.153 7.66522 109.106 7.48109C109.096 7.44061 109.085 7.39807 109.074 7.35383C109.035 7.12185 108.906 7.01843 108.634 7.01843H108.402V7.87039H107.911V5.75275C108.104 5.71419 108.376 5.68848 108.725 5.68848C109.126 5.68848 109.306 5.75275 109.461 5.84333C109.578 5.93331 109.668 6.10102 109.668 6.30787C109.668 6.53985 109.488 6.721 109.229 6.79813ZM108.415 6.66601H108.648C108.919 6.66601 109.138 6.57575 109.138 6.35677C109.138 6.16401 108.996 6.0353 108.686 6.0353C108.557 6.0353 108.466 6.04811 108.415 6.06093V6.66601Z" fill="#AEAEB2"/>
<path d="M63.2852 20.7604V5.94767C63.2852 5.46677 63.4536 5.05774 63.7905 4.72117C64.1273 4.3846 64.5367 4.21631 65.018 4.21631H75.3189V7.05381H66.6544V10.6124H73.1047V11.7185C73.1047 12.1994 72.9362 12.6084 72.5994 12.945C72.2625 13.2816 71.8531 13.4499 71.3718 13.4499H66.6544V20.7598H63.2852V20.7604Z" fill="#AEAEB2"/>
<path d="M76.6464 4.21631H78.3792C78.8284 4.21631 79.2132 4.36882 79.5343 4.67325C79.8548 4.97827 80.0156 5.35516 80.0156 5.80334V20.7598H76.6464V4.21631H76.6464Z" fill="#AEAEB2"/>
<path fill-rule="evenodd" clip-rule="evenodd" d="M92.7268 16.8162H90.3202C89.9348 16.8162 89.6382 16.8968 89.4306 17.0563C89.2218 17.217 89.1014 17.3444 89.0698 17.4408L88.8048 17.7055C88.7241 17.7862 88.6364 17.8423 88.5399 17.8738C88.1545 18.0988 87.6895 18.2104 87.1439 18.2104C86.3093 18.2104 85.6835 17.9545 85.2665 17.4408C84.8168 16.9599 84.5758 16.2231 84.5443 15.2286H92.8707C92.9023 15.1649 92.9186 15.0527 92.9186 14.892V14.6998V14.3632C92.9186 12.2473 92.4051 10.5966 91.3782 9.40983C90.319 8.25578 88.8271 7.67847 86.9018 7.67847C85.0724 7.67847 83.6442 8.27214 82.6178 9.45775C81.623 10.6124 81.1259 12.2158 81.1259 14.2673C81.1259 16.4159 81.6393 18.0666 82.6663 19.2207C83.6933 20.4075 85.1215 21 86.9503 21C88.4586 21 89.7102 20.6318 90.705 19.8938C91.6998 19.1891 92.3736 18.1625 92.7268 16.8162ZM89.4539 13.0652H84.5441C84.5757 12.2325 84.816 11.5909 85.2664 11.1416C85.7155 10.6928 86.2934 10.4678 86.9993 10.4678C87.7695 10.4678 88.3631 10.6928 88.7801 11.1416C89.1649 11.5588 89.3895 12.1998 89.4539 13.0652Z" fill="#AEAEB2"/>
<path d="M104.998 20.7598H101.147L98.885 16.7203L96.5264 20.7598H92.6278L96.8153 14.1715L92.8682 7.96767H96.5743L98.7885 11.8155L101.243 7.6796C101.532 7.10228 102.013 6.81421 102.687 6.81421H105.575L100.762 14.2206L104.998 20.7598Z" fill="#AEAEB2"/>
<path d="M60.0971 17.2931C59.2211 15.912 58.5246 14.9513 58.0083 14.4103C57.492 13.8693 56.8371 13.3725 56.0437 12.9204C57.6384 12.6943 58.8367 12.1474 59.6386 11.2791C60.4399 10.4108 60.8411 9.31061 60.8411 7.97844C60.8411 6.92883 60.5766 5.99636 60.0477 5.18046C59.5187 4.36514 58.8144 3.79766 57.9342 3.47859C57.054 3.15953 55.643 3 53.7006 3H49.8189V6.00402H52.5108C53.9983 6.00402 54.8911 6.02403 55.1881 6.06465C55.7834 6.16178 56.2437 6.39372 56.5702 6.76105C56.8967 7.12839 57.06 7.6111 57.06 8.20861C57.06 8.74136 56.9359 9.18581 56.6883 9.54079C56.4407 9.89635 56.0973 10.1465 55.6593 10.2919C55.2213 10.4373 54.1224 10.5097 52.3619 10.5097H52.3095H49.8195H38.4473V3.00059H34.8367V20.7574H38.4473V13.3554H50.8919C51.4793 13.3778 51.9318 13.4396 52.2372 13.5444C52.6258 13.6774 52.9933 13.9241 53.3404 14.2832C53.6874 14.6423 54.332 15.5123 55.2743 16.8934L57.927 20.7574H62.3154L60.0971 17.2931Z" fill="#009444"/>
<rect x="45.7462" y="13.7686" width="3.61904" height="6.98879" fill="#009444"/>
<rect x="45.7462" y="3.00098" width="3.61904" height="7.09648" fill="#009444"/>
</svg>
