<svg width="80" height="18" viewBox="0 0 80 18" fill="none" xmlns="http://www.w3.org/2000/svg">
<path fill-rule="evenodd" clip-rule="evenodd" d="M71.7173 3.7597C71.7173 2.58461 72.6864 1.64209 73.9011 1.64209C75.1287 1.64209 76.072 2.58461 76.072 3.7597C76.072 4.96049 75.1287 5.90302 73.9011 5.90302C72.6864 5.90302 71.7173 4.96049 71.7173 3.7597ZM72.26 3.76087C72.26 4.70339 72.9578 5.45192 73.914 5.45192C74.8445 5.45192 75.5293 4.70281 75.5293 3.77373C75.5293 2.83179 74.8445 2.06982 73.9011 2.06982C72.9578 2.06982 72.26 2.8312 72.26 3.76087Z" fill="#AEAEB2"/>
<path fill-rule="evenodd" clip-rule="evenodd" d="M74.3925 3.79813V3.82384C74.5995 3.90156 74.7153 4.05641 74.7796 4.34098C74.844 4.66353 74.8831 4.79267 74.9346 4.87039H74.4047C74.352 4.80668 74.3162 4.66522 74.2695 4.48109C74.2593 4.44061 74.2485 4.39807 74.2369 4.35383C74.1983 4.12185 74.069 4.01843 73.7977 4.01843H73.5649V4.87039H73.0742V2.75275C73.2678 2.71419 73.5398 2.68848 73.8883 2.68848C74.2889 2.68848 74.4697 2.75275 74.6246 2.84333C74.741 2.93331 74.8317 3.10102 74.8317 3.30787C74.8317 3.53985 74.651 3.721 74.3925 3.79813ZM73.5783 3.66601H73.8111C74.0824 3.66601 74.3017 3.57575 74.3017 3.35677C74.3017 3.16401 74.1596 3.0353 73.8497 3.0353C73.7204 3.0353 73.6298 3.04811 73.5783 3.06093V3.66601Z" fill="#AEAEB2"/>
<path d="M28.4485 17.7604V2.94767C28.4485 2.46677 28.6169 2.05774 28.9538 1.72117C29.2907 1.3846 29.7 1.21631 30.1814 1.21631H40.4822V4.05381H31.8178V7.61237H38.268V8.7185C38.268 9.1994 38.0996 9.60843 37.7627 9.945C37.4258 10.2816 37.0164 10.4499 36.5351 10.4499H31.8178V17.7598H28.4485V17.7604Z" fill="#AEAEB2"/>
<path d="M41.8097 1.21631H43.5426C43.9917 1.21631 44.3766 1.36882 44.6976 1.67325C45.0181 1.97827 45.179 2.35516 45.179 2.80334V17.7598H41.8097V1.21631H41.8097Z" fill="#AEAEB2"/>
<path fill-rule="evenodd" clip-rule="evenodd" d="M57.8901 13.8162H55.4835C55.0981 13.8162 54.8016 13.8968 54.594 14.0563C54.3852 14.217 54.2647 14.3444 54.2331 14.4408L53.9682 14.7055C53.8875 14.7862 53.7997 14.8423 53.7032 14.8738C53.3178 15.0988 52.8529 15.2104 52.3072 15.2104C51.4726 15.2104 50.8469 14.9545 50.4299 14.4408C49.9801 13.9599 49.7392 13.2231 49.7076 12.2286H58.034C58.0656 12.1649 58.082 12.0527 58.082 11.892V11.6998V11.3632C58.082 9.24733 57.5685 7.5966 56.5415 6.40983C55.4823 5.25578 53.9904 4.67847 52.0651 4.67847C50.2357 4.67847 48.8075 5.27214 47.7811 6.45775C46.7863 7.61238 46.2892 9.21577 46.2892 11.2673C46.2892 13.4159 46.8027 15.0666 47.8297 16.2207C48.8566 17.4075 50.2848 18 52.1136 18C53.6219 18 54.8735 17.6318 55.8683 16.8938C56.8631 16.1891 57.5369 15.1625 57.8901 13.8162ZM54.6172 10.0652H49.7074C49.739 9.2325 49.9794 8.59091 50.4297 8.14157C50.8789 7.69281 51.4567 7.46785 52.1626 7.46785C52.9328 7.46785 53.5264 7.69281 53.9434 8.14157C54.3283 8.55878 54.5528 9.19978 54.6172 10.0652Z" fill="#AEAEB2"/>
<path d="M70.1612 17.7598H66.3106L64.0484 13.7203L61.6897 17.7598H57.7911L61.9786 11.1715L58.0315 4.96767H61.7377L63.9519 8.81547L66.4065 4.6796C66.6954 4.10228 67.1767 3.81421 67.8504 3.81421H70.7384L65.9251 11.2206L70.1612 17.7598Z" fill="#AEAEB2"/>
<path d="M25.2604 14.2931C24.3844 12.912 23.688 11.9513 23.1716 11.4103C22.6553 10.8693 22.0004 10.3725 21.207 9.92038C22.8017 9.69433 24 9.14745 24.8019 8.27915C25.6032 7.41085 26.0045 6.31061 26.0045 4.97844C26.0045 3.92883 25.74 2.99636 25.211 2.18046C24.682 1.36514 23.9777 0.797657 23.0975 0.478594C22.2173 0.159531 20.8063 0 18.864 0H14.9822V3.00402H17.6741C19.1616 3.00402 20.0545 3.02403 20.3515 3.06465C20.9467 3.16178 21.407 3.39372 21.7335 3.76105C22.0601 4.12839 22.2234 4.6111 22.2234 5.20861C22.2234 5.74136 22.0992 6.18581 21.8516 6.54079C21.604 6.89635 21.2606 7.14653 20.8226 7.29194C20.3846 7.43734 19.2857 7.50975 17.5253 7.50975H17.4729H14.9829H3.61061V0.000588677H0V17.7574H3.61061V10.3554H16.0553C16.6427 10.3778 17.0951 10.4396 17.4006 10.5444C17.7892 10.6774 18.1567 10.9241 18.5037 11.2832C18.8507 11.6423 19.4954 12.5123 20.4376 13.8934L23.0903 17.7574H27.4787L25.2604 14.2931Z" fill="black"/>
<rect x="10.9095" y="10.7686" width="3.61904" height="6.98879" fill="black"/>
<rect x="10.9095" y="0.000976562" width="3.61904" height="7.09648" fill="black"/>
</svg>
