<svg width="656" height="364" viewBox="0 0 656 364" fill="none" xmlns="http://www.w3.org/2000/svg">
<rect width="656" height="364" fill="#21005D" fill-opacity="0.08"/>
<rect x="67" y="57" width="496" height="250" fill="#21005D" fill-opacity="0.01"/>
<path d="M67 307L206.897 243.269L324.92 265L414.624 169L563 243.269" stroke="#6750A4" strokeWidth="4" strokeLinecap="round"/>
<path d="M65.9786 279.281C65.0289 279.845 64.7164 281.072 65.2805 282.022C65.8446 282.971 67.0718 283.284 68.0214 282.72L65.9786 279.281ZM178.104 215L177.937 213.007L177.478 213.046L177.083 213.281L178.104 215ZM412.216 243.269L411.585 245.167L411.638 245.185L411.692 245.199L412.216 243.269ZM297.144 205L297.775 203.102L297.386 202.973L296.977 203.007L297.144 205ZM68.0214 282.72L179.125 216.72L177.083 213.281L65.9786 279.281L68.0214 282.72ZM411.692 245.199L550.572 282.93L551.62 279.07L412.74 241.339L411.692 245.199ZM178.271 216.993L297.311 206.993L296.977 203.007L177.937 213.007L178.271 216.993ZM296.513 206.898L411.585 245.167L412.847 241.372L297.775 203.102L296.513 206.898Z" fill="#21005D"/>
<path d="M65.5034 298.673C64.7707 299.5 64.8467 300.764 65.6733 301.497C66.4999 302.229 67.7639 302.153 68.4966 301.327L65.5034 298.673ZM140.895 216.641L142.392 217.968L142.392 217.968L140.895 216.641ZM397.469 105.448L398.011 107.373L398.011 107.373L397.469 105.448ZM164.361 203.701L164.684 205.675L164.684 205.675L164.361 203.701ZM297.388 181.91L297.065 179.936L297.065 179.936L297.388 181.91ZM317.799 172.061L319.143 173.542L319.143 173.542L317.799 172.061ZM381.436 114.325L380.092 112.844L380.092 112.844L381.436 114.325ZM68.4966 301.327L142.392 217.968L139.398 215.314L65.5034 298.673L68.4966 301.327ZM398.011 107.373L523.862 71.9251L522.778 68.0749L396.927 103.523L398.011 107.373ZM164.684 205.675L297.711 183.884L297.065 179.936L164.038 201.728L164.684 205.675ZM319.143 173.542L382.78 115.806L380.092 112.844L316.455 170.58L319.143 173.542ZM297.711 183.884C305.703 182.575 313.145 178.983 319.143 173.542L316.455 170.58C311.029 175.503 304.295 178.752 297.065 179.936L297.711 183.884ZM396.927 103.523C390.669 105.285 384.907 108.476 380.092 112.844L382.78 115.806C387.136 111.854 392.35 108.968 398.011 107.373L396.927 103.523ZM142.392 217.968C148.188 211.429 156.061 207.088 164.684 205.675L164.038 201.728C154.507 203.289 145.805 208.087 139.398 215.314L142.392 217.968Z" fill="#4F378B"/>
</svg>
