<svg width="24" height="24" viewBox="0 0 24 24" fill="none" xmlns="http://www.w3.org/2000/svg">
<path d="M10.9358 5.55108C13.4722 5.01864 16.2301 5.69621 18.2026 7.58403C21.2796 10.529 21.2796 15.3036 18.2026 18.2484C17.4419 18.9763 16.5645 19.524 15.6279 19.8921C17.0483 19.5939 18.3993 18.9163 19.5038 17.8592C22.5809 14.9142 22.5809 10.1396 19.5038 7.19484C17.1876 4.97785 13.788 4.43016 10.9358 5.55108Z" fill="#EE8322"/>
<path d="M4.70552 15.1249C4.06346 12.3232 4.88067 9.27671 7.15715 7.09793C10.7085 3.69906 16.4664 3.69906 20.0177 7.09793C20.8957 7.93821 21.5561 8.90744 22 9.94185C21.6404 8.37289 20.8234 6.8806 19.5484 5.66027C15.9971 2.2614 10.2393 2.2614 6.6878 5.66027C4.01422 8.21909 3.35379 11.9746 4.70552 15.1249Z" fill="#009444"/>
<path d="M14.5526 20.148C11.6252 20.7625 8.44211 19.9803 6.16562 17.8016C2.61432 14.4027 2.61432 8.89207 6.16562 5.49296C7.04359 4.65268 8.05628 4.02059 9.13708 3.59576C7.49776 3.93994 5.93854 4.72185 4.66348 5.94218C1.11217 9.34105 1.11217 14.8519 4.66348 18.2508C7.33706 20.8096 11.261 21.4417 14.5526 20.148Z" fill="#ED1C24"/>
</svg>
