<svg width="656" height="364" viewBox="0 0 656 364" fill="none" xmlns="http://www.w3.org/2000/svg">
<rect width="656" height="364" fill="#21005D" fill-opacity="0.08"/>
<path d="M453 182C453 198.415 449.767 214.67 443.485 229.835C437.203 245.001 427.996 258.781 416.388 270.388C404.781 281.996 391.001 291.203 375.835 297.485C360.67 303.767 344.415 307 328 307L328 244.5C336.208 244.5 344.335 242.883 351.918 239.742C359.501 236.602 366.391 231.998 372.194 226.194C377.998 220.391 382.602 213.501 385.742 205.918C388.883 198.335 390.5 190.208 390.5 182H453Z" fill="#D0BCFF"/>
<path d="M392.821 75.1202C371.682 62.2999 347.216 56.0359 322.517 57.1203C297.818 58.2047 273.996 66.5888 254.062 81.2124C234.128 95.836 218.978 116.042 210.528 139.276C202.078 162.51 200.707 187.728 206.589 211.74C212.472 235.753 225.342 257.482 243.574 274.18C261.805 290.878 284.579 301.795 309.015 305.55C333.451 309.305 358.451 305.729 380.855 295.276C403.259 284.822 422.059 267.959 434.88 246.821L381.44 214.41C375.03 224.98 365.629 233.411 354.427 238.638C343.226 243.865 330.725 245.652 318.507 243.775C306.289 241.897 294.903 236.439 285.787 228.09C276.671 219.741 270.236 208.877 267.295 196.87C264.354 184.864 265.039 172.255 269.264 160.638C273.489 149.021 281.064 138.918 291.031 131.606C300.998 124.294 312.909 120.102 325.259 119.56C337.608 119.018 349.841 122.15 360.41 128.56L392.821 75.1202Z" fill="#21005D"/>
<path d="M453 182C453 157.277 445.669 133.11 431.934 112.554C418.199 91.9976 398.676 75.976 375.835 66.5151C352.995 57.0541 327.861 54.5787 303.614 59.4018C279.366 64.225 257.093 76.1301 239.612 93.6117C222.13 111.093 210.225 133.366 205.402 157.614C200.579 181.861 203.054 206.995 212.515 229.835C221.976 252.676 237.998 272.199 258.554 285.934C279.11 299.669 303.277 307 328 307L328 244.5C315.639 244.5 303.555 240.834 293.277 233.967C282.999 227.099 274.988 217.338 270.258 205.918C265.527 194.497 264.289 181.931 266.701 169.807C269.112 157.683 275.065 146.547 283.806 137.806C292.547 129.065 303.683 123.112 315.807 120.701C327.931 118.289 340.497 119.527 351.918 124.258C363.338 128.988 373.099 136.999 379.967 147.277C386.834 157.555 390.5 169.639 390.5 182H453Z" fill="#4F378B"/>
</svg>
